<svg xmlns="http://www.w3.org/2000/svg" viewBox="0 0 500 500"><g id="freepik--Moon--inject-25"><g id="freepik--moon--inject-25"><circle cx="408.36" cy="98.79" r="55.03" transform="translate(-7.22 37.07) rotate(-5.15)" style="fill:#843684;opacity:.05"/><circle cx="408.36" cy="98.79" r="47.67" transform="translate(-10.02 60.35) rotate(-8.35)" style="fill:#843684;opacity:.15"/><circle cx="408.36" cy="98.79" r="39.89" transform="translate(-8.56 46.84) rotate(-6.5)" style="fill:#843684;opacity:.25"/><g id="freepik--moon--inject-25"><circle cx="408.36" cy="98.79" r="31.91" transform="translate(-11.77 96.46) rotate(-13.28)" style="fill:#fff"/><path d="M396.6,114.08a1.83,1.83,0,0,0,1.35,1.76c.84.13,1.85-.55,2.45,0s.16,1.26.29,1.91a1.48,1.48,0,0,0,2.62.38c.23-.45.21-1,.46-1.44a1.32,1.32,0,0,1,2.39,1.11c-.24.67-1,1-1.5,1.48a2.52,2.52,0,0,0-.94,2.19,1.64,1.64,0,0,0,1.71,1.44,6.22,6.22,0,0,0,1.37-.57,2.54,2.54,0,0,1,2.85.77c.24.31.41.68.66,1a2.35,2.35,0,0,0,3.18.17,2.89,2.89,0,0,0,.71-3.22c-.19-.48-.5-.9-.68-1.38a2.48,2.48,0,0,1,.66-2.74,1.94,1.94,0,0,1,2.68.26c.52.71.4,1.69.64,2.54s1.32,1.62,1.94,1,.2-1.55.79-2,1.26.1,1.47.69a7.24,7.24,0,0,1,.15,1.87c0,.63.38,1.33,1,1.44s1.27-.64,1.54-1.33.51-1.5,1.19-1.76,1.46.16,2.16,0c1.72-.49.9-3.62,2.47-4.48,1-.55,2.24.23,3.34,0a9.55,9.55,0,0,0,1.93-1.15,4.36,4.36,0,0,1,1.13-.35A31.68,31.68,0,0,0,440,94.73a9.79,9.79,0,0,0-1.91-3.48,31,31,0,0,1-2.75-2.87c-.56-.82-.87-1.8-1.49-2.59a2.26,2.26,0,0,0-2.6-.91,1.82,1.82,0,0,0-.9,1.89,2.89,2.89,0,0,0,1.2,1.83c.53.41,1.2.72,1.46,1.34a1.51,1.51,0,0,1-.52,1.73,2.06,2.06,0,0,1-1.85.28c-1.08-.34-.37-1.3-.13-2,.16-.47.12-1.1-.33-1.31s-.93.12-1.37.33a2.71,2.71,0,0,1-1.11.27.87.87,0,0,1-.48-.08c-.48-.23-.46-1-.21-1.42a4.74,4.74,0,0,0,.75-1.42,1.62,1.62,0,0,0-.85-1.56,3.78,3.78,0,0,0-1.82-.42,2.25,2.25,0,0,1-1.87-.63c-.52-.46-.92-1-1.48-1.43A3.52,3.52,0,0,0,416.12,85a2.07,2.07,0,0,1-.22,1.29,3.1,3.1,0,0,1-.78.54,1.83,1.83,0,0,0,.33,3.06c1.09.42,2.32-.18,3.43-.15,1.85,0,1.95,2.24.12,2.5-.56.09-1.59-.1-2.43,0s-1.39.36-1.34,1.28,1.25,1.8.67,2.49a1,1,0,0,1-1.23,0,7.74,7.74,0,0,1-1-.93,2.06,2.06,0,0,0-1.84-.58,1.31,1.31,0,0,0-1,1.5c.18.66,1,1.19.76,1.83s-1,.61-1.48.33-.86-.77-1.36-1.06c-1.17-.65-2.69,0-3.51,1.09s-1,2.83.22,3.34c.73.32,1.55,0,2.34-.13s1.82.47,1.59,1.23c-.15.5-.76.7-1.1,1.11a1.55,1.55,0,0,0,.18,2,2.87,2.87,0,0,0,2,.75c1.81,0,3.73-1.21,3.9-3,.09-1-.3-2.13.33-2.9a2.29,2.29,0,0,1,1.93-.63,3.35,3.35,0,0,1,1.81.52,1.64,1.64,0,0,1,.72,1.64c-.15.61-.7,1-1.09,1.5s-.6,1.29-.1,1.66c.33.25.81.17,1.16.38.68.41.34,1.56-.38,1.88a3.69,3.69,0,0,1-2.32-.06,2.64,2.64,0,0,0-2.27.25c-.88.72-.56,2.19.17,3.06.4.48.94,1,.89,1.6a1.3,1.3,0,0,1-.85,1,1.88,1.88,0,0,1-2.42-1.36,10.77,10.77,0,0,1,0-1.27,2.42,2.42,0,0,0-1.58-2.18,1.9,1.9,0,0,0-2.33,1.09c-.18.52-.09,1.11-.32,1.61a1.62,1.62,0,0,1-2.62.21,2,2,0,0,1,.54-2.77c.7-.47,1.8-.72,1.87-1.57a1.13,1.13,0,0,0-.27-.78,1.8,1.8,0,0,0-2.94.42,3.06,3.06,0,0,1-.35.88c-.66.84-2.42,0-2.92,1-.24.47,0,1.08-.21,1.55s-1.06.52-1.67.61A3.15,3.15,0,0,0,396.6,114.08ZM377.08,92.41a5,5,0,0,0,1.19-.36c.7-.27,1.61-.45,2.1.12.3.35.31.86.53,1.26a1.66,1.66,0,0,0,2,.65,2.69,2.69,0,0,0,1.49-1.62,5.34,5.34,0,0,1,.79-1.86,1.55,1.55,0,0,1,2.63,1.48c-.26.92-1.28,1.4-1.75,2.23a2,2,0,0,0,.45,2.47,1.66,1.66,0,0,0,2.36-.46c.38-.7.27-1.78,1-2.06.91-.35,1.49,1,2.3,1.52a1.62,1.62,0,0,0,2.06-2.48c-.32-.32-.78-.52-1-.93-.37-.83.77-1.63,1.66-1.44a9.31,9.31,0,0,1,2.34,1.34,4.17,4.17,0,0,0,4.18-.13,2.46,2.46,0,0,0,1-1.11c.51-1.24-.43-2.8.29-3.93a1.53,1.53,0,0,1,2.72,1.37c-.27.72-1,1.14-1.4,1.81a2.55,2.55,0,0,0,1.17,3.23,5.88,5.88,0,0,0,3.71.44,2,2,0,0,0,1.17-.45c.83-.86-.33-2.26-.17-3.45.18-1.36,2-2,2.17-3.42.08-.74-.41-1.5-.2-2.22.4-1.35,2.72-1.27,3.13-2.62a1.57,1.57,0,0,0-.61-1.62,3.13,3.13,0,0,0-1.74-.56c-.82-.06-1.86-.1-2.17-.86s.59-1.65,1.44-2a4.35,4.35,0,0,1,2.38-.33A2.21,2.21,0,0,1,416.1,78a5.66,5.66,0,0,0,.16.82,2,2,0,0,0,2.1,1,14.06,14.06,0,0,1,2.48-.33c2.32.19,3.67,3.18,6,3.31a.8.8,0,0,0,.66-.2.9.9,0,0,0,.09-.67,6.64,6.64,0,0,0-4-5c-1.31-.53-2.8-.62-4-1.32a22.12,22.12,0,0,1-2.38-1.86,3.45,3.45,0,0,0-2.8-.84c-1.15.28-1.86,1.41-2.56,2.36s-1.77,1.93-2.93,1.64a3,3,0,0,0-1.06-1.58c-.55-.34-1.45-.14-1.57.49-.08.43.22.83.3,1.26.18,1-.69,1.77-1.54,2.22A5,5,0,0,0,402.69,81a7.46,7.46,0,0,0-.43,1.23,2.83,2.83,0,0,1-2,1.91,1.81,1.81,0,0,1-2.15-1.38,2.8,2.8,0,0,1,.6-1.81,3.26,3.26,0,0,0,.66-1.81c0-.65-.7-1.29-1.3-1s-.64,1.37-1.2,1.88-1.53.19-2.27-.12-1.77-.46-2.17.23.14,1.4.3,2.11a2.18,2.18,0,0,1-3.19,2.4c-.62-1,1.33-2.2.91-3.34-.3-.79-1.47-.77-2.19-.33a2.32,2.32,0,0,1-1.17.54c-.7,0-1.13-.85-1-1.53a3.58,3.58,0,0,1,1.18-1.68c.47-.44,1.1-.91,1.69-.67.39.16.6.57.91.87a1.78,1.78,0,0,0,2.4,0,10.12,10.12,0,0,1,.88-1.08c.88-.66,2.25,0,3.19-.56a1.43,1.43,0,0,0,.38-2c-.26-.35-.71-.6-.79-1-.14-.78.8-1.38.77-2.21a2.86,2.86,0,0,0-1.14-1.93l0,0a32.05,32.05,0,0,0-14.22,12.23,3,3,0,0,0,.87,1.34,14.57,14.57,0,0,1,1.25.94,1,1,0,0,1,.11,1.41,1.24,1.24,0,0,1-.83.25,5.12,5.12,0,0,1-2.82-.79l-.25-.16A31.47,31.47,0,0,0,377.08,92.41Z" style="fill:#843684;opacity:.1"/></g></g></g><g id="freepik--Stars--inject-25"><g id="freepik--stars--inject-25"><path d="M323.83,117.57a92.71,92.71,0,0,1,7.84-5.28c-2.29,2.11-4.68,4-7.1,5.84,2.42,1.83,4.81,3.73,7.1,5.85a90.5,90.5,0,0,1-7.84-5.29A89,89,0,0,1,316,124c2.29-2.12,4.68-4,7.1-5.85-2.42-1.83-4.81-3.72-7.1-5.84A88.87,88.87,0,0,1,323.83,117.57Z" style="fill:#e0e0e0"/><path d="M324.62,114.12l-.79-12.76L323,114.12a3.89,3.89,0,0,1-3.84,3.38l-10.87.63,10.87.64a3.87,3.87,0,0,1,3.84,3.38l.79,12.76.79-12.76a3.87,3.87,0,0,1,3.84-3.38l10.87-.64-10.87-.63A3.89,3.89,0,0,1,324.62,114.12Z" style="fill:#f0f0f0"/><path d="M393.56,180.44a46.26,46.26,0,0,1,3.95-2.66c-1.15,1.07-2.36,2-3.57,2.94,1.21.92,2.42,1.88,3.57,2.94a44,44,0,0,1-3.95-2.66,42.5,42.5,0,0,1-3.94,2.66c1.15-1.06,2.35-2,3.57-2.94a44.51,44.51,0,0,1-3.57-2.94A44.58,44.58,0,0,1,393.56,180.44Z" style="fill:#e0e0e0"/><path d="M394,178.45l-.45-7.23-.44,7.23a2.2,2.2,0,0,1-2.18,1.91l-6.15.36,6.15.36a2.2,2.2,0,0,1,2.18,1.92l.44,7.23L394,183a2.2,2.2,0,0,1,2.18-1.92l6.15-.36-6.15-.36A2.2,2.2,0,0,1,394,178.45Z" style="fill:#f0f0f0"/><path d="M299.11,151.51a1.37,1.37,0,1,0,1.36,1.36A1.36,1.36,0,0,0,299.11,151.51Zm-3.53,4.28a.81.81,0,0,0-.81.81.81.81,0,1,0,1.62,0A.81.81,0,0,0,295.58,155.79Zm62.22-4.39a1.58,1.58,0,1,0,.89,2A1.59,1.59,0,0,0,357.8,151.4ZM478.17,36.64A1.37,1.37,0,1,0,479.54,38,1.36,1.36,0,0,0,478.17,36.64Zm-5.92,38.14a.65.65,0,0,0,.84-.37.65.65,0,0,0-1.21-.48A.67.67,0,0,0,472.25,74.78ZM346.44,58.13a1.14,1.14,0,1,0,1.41-.78A1.14,1.14,0,0,0,346.44,58.13Zm-38,20.08a.64.64,0,0,0-.27-1.25.65.65,0,0,0-.49.76A.64.64,0,0,0,308.46,78.21Zm60.68,85.9a.86.86,0,1,0,.49,1.12A.86.86,0,0,0,369.14,164.11ZM352.61,50.22a2.28,2.28,0,1,0,2.82-1.57A2.29,2.29,0,0,0,352.61,50.22ZM472.49,36a.66.66,0,1,0,.66.66A.66.66,0,0,0,472.49,36ZM293.43,150.85a.66.66,0,1,0,.66.66A.67.67,0,0,0,293.43,150.85Zm182-109.12a.82.82,0,0,0-.82-.81.81.81,0,0,0-.81.81.82.82,0,0,0,.81.82A.82.82,0,0,0,475.46,41.73ZM303.8,79.91a.81.81,0,0,0-.6,1,.78.78,0,1,0,.6-1Zm146,83a.65.65,0,1,0,.37.85A.66.66,0,0,0,449.77,163ZM307.92,82a1.33,1.33,0,1,0,1.57,1A1.32,1.32,0,0,0,307.92,82Zm74.29,159.3a.65.65,0,1,0,.37.85A.66.66,0,0,0,382.21,241.27Zm20.7-17.37a1.3,1.3,0,1,0,.73,1.69A1.31,1.31,0,0,0,402.91,223.9ZM479,166.39a.65.65,0,1,0-.48,1.21.65.65,0,0,0,.48-1.21ZM398.75,220a.65.65,0,0,0-.84.37.64.64,0,0,0,.37.84.65.65,0,1,0,.47-1.21Zm28-38.57a.66.66,0,0,0,.5-.78.65.65,0,0,0-.78-.5.64.64,0,0,0-.5.78A.65.65,0,0,0,426.73,181.4Zm7.68-151.16A1.37,1.37,0,1,0,433,31.6,1.37,1.37,0,0,0,434.41,30.24Zm-7-2a.66.66,0,1,0,.65.65A.65.65,0,0,0,427.37,28.22Zm-1.19,157a1.37,1.37,0,1,0,1.62,1A1.37,1.37,0,0,0,426.18,185.26Zm3.34-152.11a.82.82,0,0,0-.82.82.82.82,0,0,0,.82.81.81.81,0,0,0,.81-.81A.82.82,0,0,0,429.52,33.15ZM405.45,204.53a.64.64,0,0,0-.84.37.65.65,0,0,0,.36.84.65.65,0,1,0,.48-1.21ZM313.16,42.64a1.26,1.26,0,1,0,1.26,1.26A1.25,1.25,0,0,0,313.16,42.64ZM421.9,183.15a.81.81,0,1,0,.35,1.59.81.81,0,0,0-.35-1.59Zm58.45-56a.66.66,0,1,0-.78-.5A.66.66,0,0,0,480.35,127.17ZM479.8,131a1.37,1.37,0,1,0,1.63,1.05A1.38,1.38,0,0,0,479.8,131Zm-4.27-2.11a.83.83,0,0,0-.63,1,.81.81,0,1,0,.63-1Z" style="fill:#e6e6e6"/></g></g></svg>