<svg xmlns="http://www.w3.org/2000/svg" viewBox="0 0 500 500"><g id="freepik--Table--inject-44"><path d="M447.41,424.7H25.77a.51.51,0,0,1-.5-.5.5.5,0,0,1,.5-.5H447.41a.5.5,0,0,1,.5.5A.51.51,0,0,1,447.41,424.7Z" style="fill:#263238"></path></g><g id="freepik--Character--inject-44"><path d="M327.53,221.42s-21.71,21.34-21.71,30.91,12.88,12.51,13.62,15.45S305.82,312.31,304,317.83s30.55,36.06,62.56,32,42.68-22.44,42.68-22.44-10.3-27.6-12.51-40.11,3.32-26.87,0-41.22S384.57,208.91,375,204.86,336.73,211.85,327.53,221.42Z" style="fill:#263238"></path><path d="M341.52,303.11s-12.51,4.41-22.08,6.62-19.14,4-20.24,5.15-53,46.37-55.93,50.42,1.1,15.82,9.57,17.29,11.4-2.57,11.4-2.57,5.52,0,7.73-2.95a34.66,34.66,0,0,1,5.52-5.52l23.55-11s-4.05,20.61-2.21,25,4.79,17.29,4.79,19.87-1.48,18.76-1.48,18.76h86.11s26.13-88.31,26.13-92-2.95-8.83-4.79-10.3-37.16-18.77-40.11-19.51S341.52,303.11,341.52,303.11Z" style="fill:#9C75EB"></path><path d="M388.25,424.67H302.14a.48.48,0,0,1-.36-.16.45.45,0,0,1-.13-.38c0-.16,1.47-16.2,1.47-18.72s-2.86-15.15-4.75-19.68c-1.66-4,1.21-20.16,2-24.35L277.75,372a34.39,34.39,0,0,0-5.38,5.39c-2.09,2.78-6.76,3.1-7.89,3.14-.74.84-4.05,3.91-11.73,2.57-4.2-.73-7.86-4-9.8-8.8-1.48-3.67-1.52-7.31-.09-9.28,2.3-3.15,33.37-30.52,48.3-43.67,4.32-3.8,7.44-6.55,7.69-6.8.89-.89,5.5-1.95,13.58-3.74,2.22-.49,4.56-1,6.9-1.54,9.43-2.18,21.9-6.57,22-6.61a.35.35,0,0,1,.14,0c1-.06,25.13-1.47,28.11-.72,2.8.7,38.2,17.91,40.31,19.6,1.95,1.56,5,6.86,5,10.69s-25.08,88.53-26.15,92.13A.49.49,0,0,1,388.25,424.67Zm-85.56-1h85.19c9.05-30.62,26-88.65,26-91.49,0-3.44-2.79-8.46-4.6-9.91s-37.36-18.77-39.92-19.41c-2.26-.57-19.09.24-27.74.74-1,.36-12.94,4.51-22.07,6.62-2.34.54-4.68,1.06-6.9,1.55-6.08,1.35-12.37,2.74-13.1,3.47-.25.25-2.69,2.4-7.73,6.84-14.91,13.13-45.92,40.45-48.15,43.51-1.21,1.67-1.13,5,.21,8.31,1.81,4.46,5.19,7.53,9,8.2,8,1.4,10.89-2.34,10.92-2.38a.48.48,0,0,1,.4-.2c.06,0,5.3,0,7.33-2.75a34.44,34.44,0,0,1,5.61-5.61.33.33,0,0,1,.1-.06l23.55-11a.49.49,0,0,1,.52.06.48.48,0,0,1,.18.49c0,.2-4,20.51-2.24,24.73s4.83,17.36,4.83,20.07C304.12,407.74,303,420.78,302.69,423.67Z" style="fill:#263238"></path><path d="M397.61,377.48a.5.5,0,0,1-.34-.13l-13.8-12.22a.5.5,0,0,1,0-.71.48.48,0,0,1,.7,0l12.08,10.69-7.34-16.42a.5.5,0,0,1,.91-.41l8.28,18.53a.5.5,0,0,1-.16.61A.46.46,0,0,1,397.61,377.48Z" style="fill:#263238"></path><path d="M339.63,420.07l-.14,0a.5.5,0,0,1-.34-.63s.37-1.21.79-2.76a.49.49,0,0,1,.61-.35.48.48,0,0,1,.35.61c-.42,1.56-.79,2.79-.79,2.79A.49.49,0,0,1,339.63,420.07Z" style="fill:#263238"></path><path d="M341.07,414.76H341a.5.5,0,0,1-.37-.6c.68-2.86.58-3.41.55-3.49-.4-1.2-2.79-16.32-2.79-23.43,0-5.06,4.53-28.2,7.23-41.55a.5.5,0,1,1,1,.2c-2.69,13.31-7.21,36.38-7.21,41.35,0,7,2.35,21.93,2.74,23.11.12.35.16,1.13-.53,4A.49.49,0,0,1,341.07,414.76Z" style="fill:#263238"></path><path d="M347,341.63h-.1a.5.5,0,0,1-.39-.59c.56-2.72.91-4.38.91-4.38a.5.5,0,1,1,1,.2l-.9,4.38A.5.5,0,0,1,347,341.63Z" style="fill:#263238"></path><path d="M284.75,340.55s-7.8,6.8-13.09,9.31S247,359.94,241.2,364.47s-8.57,10.07-6.8,17.12,7.55,10.83,14.1,9.82,11.33-7.81,18.63-13.6,24.67-20.64,27.44-24.42,4.54-5.29,4.54-7.81S292.06,336.77,284.75,340.55Z" style="fill:#fff"></path><path d="M246.39,392.07c-6,0-10.88-3.95-12.48-10.36-1.71-6.85.57-12.62,7-17.64,4.32-3.38,16.18-8.45,24-11.8,2.77-1.18,5.16-2.2,6.54-2.86,5.16-2.46,12.9-9.17,13-9.24l.09-.07a11.11,11.11,0,0,1,11.05.54c2.34,1.43,4,3.5,4,4.94,0,2.12-1.1,3.52-2.9,5.84-.52.66-1.1,1.4-1.73,2.27-2.88,3.91-20.76,19.14-27.54,24.51-2.26,1.8-4.26,3.67-6.19,5.48-4.3,4-8,7.51-12.68,8.22A13.61,13.61,0,0,1,246.39,392.07ZM285,341c-.72.61-8,6.9-13.16,9.35-1.4.66-3.8,1.68-6.58,2.87-7.79,3.33-19.57,8.37-23.8,11.67-6.06,4.75-8.23,10.18-6.62,16.61,1.66,6.64,7.1,10.43,13.54,9.45,4.36-.68,8-4.06,12.15-8,1.95-1.83,4-3.71,6.25-5.53,7.78-6.17,24.68-20.69,27.35-24.33.64-.87,1.22-1.62,1.75-2.29,1.73-2.22,2.69-3.45,2.69-5.22,0-.92-1.36-2.75-3.56-4.08A10.19,10.19,0,0,0,285,341Z" style="fill:#263238"></path><path d="M241.2,364.47c-5.8,4.53-8.57,10.07-6.8,17.12s7.55,10.83,14.1,9.82c3.52-.54,6.54-2.77,9.71-5.61-5.49-.47-13-2.23-15.5-8.24-2.32-5.63-.65-11.18,1.19-14.89A26.22,26.22,0,0,0,241.2,364.47Z" style="fill:#9C75EB"></path><path d="M246.39,392.07c-6,0-10.88-3.95-12.48-10.36-1.71-6.85.57-12.62,7-17.64h0a28,28,0,0,1,2.76-1.83.5.5,0,0,1,.7.65c-1.78,3.59-3.43,9-1.18,14.48,2.33,5.69,9.49,7.46,15.08,7.93a.52.52,0,0,1,.44.34.5.5,0,0,1-.15.53c-3.39,3-6.39,5.18-10,5.73A13.61,13.61,0,0,1,246.39,392.07Zm-4.89-27.21c-6.06,4.75-8.23,10.18-6.62,16.61,1.66,6.64,7.1,10.43,13.54,9.45,3-.47,5.68-2.22,8.6-4.74-5.67-.64-12.41-2.67-14.78-8.43-2.08-5.08-1-10.08.52-13.78-.48.32-.9.61-1.26.89Z" style="fill:#263238"></path><path d="M298.85,327.71s-4-3.53-5.28-7.81-4.54-1.51-4.54,1.26,2.77,7,3.28,7.81.25,5.79.5,9.82.5,11.58,3.53,10.82,3.77-7.3,4-11.33S298.85,327.71,298.85,327.71Z" style="fill:#fff"></path><path d="M295.93,350.16a1.89,1.89,0,0,1-1.15-.38c-1.75-1.29-2.15-5.56-2.42-10.2l-.05-.76c-.1-1.58-.12-3.34-.14-4.88a23.21,23.21,0,0,0-.28-4.7c-.56-.84-3.36-5.18-3.36-8.08,0-1.89,1.3-3.74,2.78-4,.58-.08,2,0,2.74,2.55,1.2,4.09,5.09,7.54,5.13,7.57a.51.51,0,0,1,.16.25c.07.27,1.78,6.67,1.52,10.73-.45,7.31-1.89,11.16-4.4,11.79A2.46,2.46,0,0,1,295.93,350.16Zm-4.34-32h-.13c-.88.12-1.93,1.47-1.93,3,0,2.67,2.87,7,3.19,7.53s.41,2.18.45,5.24c0,1.53,0,3.27.14,4.82l.05.77c.18,3.12.49,8.34,2,9.46a.93.93,0,0,0,.83.15c1.38-.35,3.13-2.51,3.66-10.88.22-3.58-1.21-9.3-1.46-10.27-.7-.63-4.14-3.93-5.32-7.94C292.88,319.34,292.41,318.19,291.59,318.19Z" style="fill:#263238"></path><path d="M292.31,329s-12.84-3.28-13.1-1.26-1,6,1.77,7.55,11.83,0,12.59-.75S296.59,329.47,292.31,329Z" style="fill:#fff"></path><path d="M285,336.4a9.6,9.6,0,0,1-4.22-.7c-2.88-1.57-2.36-5.5-2.08-7.62l.06-.44a1,1,0,0,1,.45-.7c1.86-1.27,11.27,1,13.23,1.53,1.85.23,2.54,1.14,2.79,1.86.59,1.7-.67,3.93-1.27,4.53S288.73,336.4,285,336.4ZM281,327.54c-.71,0-1.18.08-1.31.25l-.05.42c-.26,2-.71,5.37,1.57,6.61,2.59,1.42,11.22-.05,12-.67.38-.39,1.46-2.23,1-3.49-.23-.67-.9-1.07-2-1.2h-.07A55.66,55.66,0,0,0,281,327.54Z" style="fill:#263238"></path><path d="M281,335.26a6.73,6.73,0,0,0,.75,5.54c1.77,2.77,11.58,1,13.1.25s1.76-4.78-.26-5.29S281,335.26,281,335.26Z" style="fill:#fff"></path><path d="M286.85,342.79c-2.46,0-4.71-.42-5.54-1.72a7.17,7.17,0,0,1-.8-6,.5.5,0,0,1,.47-.33c.47,0,11.66,0,13.71.52a2.6,2.6,0,0,1,1.8,2.5c.15,1.38-.3,3.15-1.44,3.72A26.08,26.08,0,0,1,286.85,342.79Zm-5.49-7a6.31,6.31,0,0,0,.79,4.77c1.49,2.33,10.86.87,12.45.07.62-.3,1-1.55.9-2.71-.05-.43-.24-1.44-1.05-1.64C293,335.88,285.45,335.77,281.36,335.76Z" style="fill:#263238"></path><path d="M281.73,340.8s.76,5.79,2.52,7.3,8.81-.75,10.32-1.26.76-4.53.76-4.53l-1.26-.25Z" style="fill:#fff"></path><path d="M286.37,349.11a3.78,3.78,0,0,1-2.44-.63c-1.86-1.59-2.61-7-2.69-7.61a.49.49,0,0,1,.54-.57l12.34,1.26,1.31.26a.5.5,0,0,1,.39.4c.14.74.74,4.49-1.09,5.1A30.8,30.8,0,0,1,286.37,349.11Zm-4.05-7.75c.3,1.87,1.08,5.35,2.26,6.36,1,.85,4.84.31,9.84-1.35.66-.22.7-2.15.47-3.64l-.92-.18Z" style="fill:#263238"></path><path d="M285.26,349.11s-.76,3.52,2.52,3.78,8.3-1.77,8.56-3.28-.76-3-1.77-2.77S286.77,349.36,285.26,349.11Z" style="fill:#fff"></path><path d="M288.32,353.41a5.35,5.35,0,0,1-.58,0,3.14,3.14,0,0,1-2.4-1.18,4.39,4.39,0,0,1-.57-3.2.49.49,0,0,1,.57-.38c1.08.18,5.74-1.25,7.73-1.85.66-.21,1.16-.36,1.38-.41a1.58,1.58,0,0,1,1.48.44,3.29,3.29,0,0,1,.9,2.89C296.52,351.55,291.59,353.41,288.32,353.41Zm-2.62-3.79a3,3,0,0,0,.44,2,2.21,2.21,0,0,0,1.67.79c3.19.23,7.85-1.78,8-2.86a2.31,2.31,0,0,0-.58-2,.66.66,0,0,0-.57-.2c-.21.05-.69.2-1.33.39A43.64,43.64,0,0,1,285.7,349.62Z" style="fill:#263238"></path><path d="M294.83,328.09C294.57,340.55,298,355,298,355c0,1.73,4.44,3.14,9.92,3.14s9.92-1.41,9.92-3.14c2.36-9.45,3.17-26.94,3.17-26.94Z" style="fill:#fff"></path><path d="M307.92,358.67c-5,0-10.33-1.25-10.42-3.58-.22-1-3.42-15-3.17-27a.5.5,0,0,1,.5-.5H321a.48.48,0,0,1,.36.16.47.47,0,0,1,.14.37c0,.17-.83,17.59-3.17,27C318.23,357.42,312.92,358.67,307.92,358.67Zm-12.6-30.09c-.15,12.15,3.13,26.19,3.17,26.33s0,.08,0,.12c0,1.1,3.58,2.64,9.42,2.64s9.42-1.54,9.42-2.64a.45.45,0,0,1,0-.12c2.1-8.38,3-23.35,3.13-26.33Z" style="fill:#263238"></path><path d="M321,328.09c0,1.1-1.34,2.08-3.51,2.83a35.42,35.42,0,0,1-19.16,0c-2.17-.75-3.51-1.73-3.51-2.83,0-2.3,5.86-4.16,13.09-4.16S321,325.79,321,328.09Z" style="fill:#fff"></path><path d="M307.92,332.74a31.57,31.57,0,0,1-9.74-1.35c-2.52-.87-3.85-2-3.85-3.3,0-3,7-4.66,13.59-4.66s13.59,1.63,13.59,4.66c0,1.29-1.33,2.43-3.85,3.3A31.57,31.57,0,0,1,307.92,332.74Zm0-8.31c-7.42,0-12.59,1.93-12.59,3.66,0,.8,1.16,1.66,3.17,2.36a35,35,0,0,0,18.84,0c2-.7,3.17-1.56,3.17-2.36C320.51,326.36,315.34,324.43,307.92,324.43Z" style="fill:#263238"></path><path d="M317.5,330.92a35.42,35.42,0,0,1-19.16,0,35.17,35.17,0,0,1,19.16,0Z" style="fill:#fff"></path><path d="M307.92,332.74a31.57,31.57,0,0,1-9.74-1.35.5.5,0,0,1-.34-.47.51.51,0,0,1,.34-.47,35.56,35.56,0,0,1,19.48,0,.51.51,0,0,1,.34.47.5.5,0,0,1-.34.47A31.57,31.57,0,0,1,307.92,332.74Zm-7.76-1.82a37.13,37.13,0,0,0,15.52,0,36.69,36.69,0,0,0-15.52,0Z" style="fill:#263238"></path><line x1="340.49" y1="363.87" x2="336.78" y2="320.98" style="fill:#fff"></line><path d="M340.49,364.37a.51.51,0,0,1-.5-.46L336.28,321a.49.49,0,0,1,.45-.54.49.49,0,0,1,.54.45L341,363.82a.51.51,0,0,1-.46.55Z" style="fill:#263238"></path><line x1="345.56" y1="364.88" x2="364.47" y2="325.37" style="fill:#fff"></line><path d="M345.56,365.38a.44.44,0,0,1-.22-.05.49.49,0,0,1-.23-.66L364,325.15a.5.5,0,1,1,.9.43L346,365.1A.5.5,0,0,1,345.56,365.38Z" style="fill:#263238"></path><rect x="331.15" y="364.24" width="19.32" height="28.79" transform="translate(37.9 -30.95) rotate(5.51)" style="fill:#fff"></rect><path d="M349.05,394.39H349l-19.24-1.86a.5.5,0,0,1-.45-.54l2.77-28.66a.51.51,0,0,1,.17-.34.56.56,0,0,1,.37-.11l19.24,1.86a.5.5,0,0,1,.45.54l-2.77,28.66a.48.48,0,0,1-.18.34A.51.51,0,0,1,349.05,394.39Zm-18.69-2.8,18.24,1.75,2.66-27.66L333,363.93Z" style="fill:#263238"></path><rect x="336.76" y="367.87" width="8.1" height="12.07" transform="matrix(1, 0.1, -0.1, 1, 37.44, -30.97)" style="fill:#fff"></rect><path d="M344.26,380.8h-.05l-8.06-.78a.5.5,0,0,1-.45-.54l1.16-12a.52.52,0,0,1,.55-.45l8.06.78a.52.52,0,0,1,.34.18.54.54,0,0,1,.11.37l-1.16,12A.5.5,0,0,1,344.26,380.8Zm-7.51-1.72,7.06.68,1.06-11-7.06-.68Z" style="fill:#263238"></path><line x1="334.41" y1="384.47" x2="344.94" y2="385.55" style="fill:#fff"></line><path d="M344.94,386.05h-.05L334.36,385a.5.5,0,0,1-.44-.55.49.49,0,0,1,.54-.45L345,385.05a.5.5,0,0,1-.05,1Z" style="fill:#263238"></path><line x1="334.18" y1="387.79" x2="344.7" y2="388.87" style="fill:#fff"></line><path d="M344.71,389.37h-.06l-10.53-1.08a.5.5,0,0,1,.11-1l10.52,1.08a.5.5,0,0,1,.45.55A.5.5,0,0,1,344.71,389.37Z" style="fill:#263238"></path><path d="M345.2,292.81s-8.83,6.25-8.83,7.36-3.32,17.66-4.79,22.07-4.05,5.52-1.84,5.52,5.52-6.62,8.1-8.46a34.07,34.07,0,0,1,4.05-2.58l17.66.74s8.09,11,9.57,11.78,2.2-1.48,2.2-2.95,2.58-13.25,3.32-20.24-2.21-13.61-5.89-15.82S345.2,292.81,345.2,292.81Z" style="fill:#fff"></path><path d="M369.68,329.88a1.68,1.68,0,0,1-.79-.2c-1.46-.73-8-9.5-9.6-11.73L342,317.23a35.32,35.32,0,0,0-3.87,2.48,20.4,20.4,0,0,0-3.43,4c-1.84,2.47-3.44,4.6-5,4.6-.5,0-1.05,0-1.27-.46s.06-.92.57-1.67a16,16,0,0,0,2.07-4.05c1.42-4.25,4.76-20.87,4.76-21.91s4.91-4.85,9-7.77a.38.38,0,0,1,.17-.08c2.05-.49,20.18-4.77,23.92-2.52s6.92,8.87,6.13,16.31c-.43,4.13-1.52,10-2.32,14.29-.53,2.86-1,5.33-1,5.89,0,1.22-.42,2.79-1.36,3.36A1.47,1.47,0,0,1,369.68,329.88Zm-27.79-13.66h0l17.66.74a.51.51,0,0,1,.38.2c3.1,4.23,8.4,11.13,9.39,11.63a.55.55,0,0,0,.6,0,3.41,3.41,0,0,0,.88-2.51c0-.62.37-2.61,1-6.07.79-4.27,1.88-10.12,2.31-14.22.74-7-2.29-13.33-5.65-15.34-2.86-1.72-17.54,1.28-23.08,2.61-4,2.85-8.3,6.22-8.55,7,0,1.16-3.36,17.84-4.8,22.18a16.34,16.34,0,0,1-2.2,4.29l-.37.57h.25c1,0,2.69-2.23,4.16-4.2a20.89,20.89,0,0,1,3.65-4.17,33.57,33.57,0,0,1,4.11-2.61A.46.46,0,0,1,341.89,316.22Z" style="fill:#263238"></path><path d="M370.22,287.28a161.15,161.15,0,0,1-1.82,16.06c-.58,3.19-1.32,6-2.23,7.5-2.94,4.78-14.72,20.6-17.66,20.6s-7.36-14-7.73-19.5,0-16.93,0-16.93c4.84.38,12.31-1.6,18.52-3.66h0C365.37,289.35,370.22,287.28,370.22,287.28Z" style="fill:#fff"></path><path d="M348.51,331.94c-3.47,0-7.88-14.68-8.22-20-.38-5.48,0-16.86,0-17a.53.53,0,0,1,.17-.36.51.51,0,0,1,.37-.13c4.95.38,12.69-1.76,18.32-3.64h.05c5.95-2,10.79-4,10.83-4a.53.53,0,0,1,.49.05.51.51,0,0,1,.21.44c0,.09-.55,9.06-1.83,16.11-.67,3.7-1.44,6.29-2.29,7.68C364.43,314.62,352,331.94,348.51,331.94Zm-7.24-36.4c-.07,2.28-.31,11.59,0,16.37.41,6.22,5,19,7.23,19,2.47,0,13.73-14.66,17.24-20.36a24.4,24.4,0,0,0,2.15-7.33c1.06-5.78,1.6-12.85,1.77-15.2-1.6.66-5.57,2.24-10.21,3.77l0,0C353.89,293.67,346.36,295.76,341.27,295.54Z" style="fill:#263238"></path><path d="M351.63,308.53c8.21-5.92,18.59-21.25,18.59-21.25s-4.85,2.07-10.91,4.07h0c-6.21,2.06-13.68,4-18.52,3.66,0,0-.29,9.05-.09,14.93C343.11,312.15,346,312.64,351.63,308.53Z" style="fill:#263238"></path><path d="M344.58,312.11a6.09,6.09,0,0,1-4.23-1.8.48.48,0,0,1-.16-.35c-.2-5.83.09-14.87.09-15a.53.53,0,0,1,.17-.36.47.47,0,0,1,.37-.13c4.95.38,12.69-1.76,18.32-3.64h.05c5.95-2,10.79-4,10.83-4a.51.51,0,0,1,.59.14.5.5,0,0,1,0,.6c-.42.63-10.52,15.47-18.71,21.38h0C349,311.06,346.63,312.11,344.58,312.11Zm-3.4-2.4c2.18,1.89,4.78,2.3,10.16-1.58h0c6.6-4.77,14.73-15.84,17.5-19.74-1.92.77-5.41,2.13-9.38,3.43l0,0c-5.52,1.83-13.05,3.92-18.14,3.7C341.21,297.51,341,304.72,341.18,309.71Z" style="fill:#263238"></path><path d="M324.22,250.49s2.95,23.55,5.52,30.17,14,23.55,19.14,23.55,22.08-15.08,24.65-19.5,5.89-14.35,5.89-14.35,6.25-8.46,5.15-14-5.52,1.47-5.52,1.47-8.46-10.67-11-14S366.7,241,366.7,241l7.94-13.32s-1.84-1.1-3.32,2.21-7.72,10.31-7.72,10.31S335.63,244.23,324.22,250.49Z" style="fill:#fff"></path><path d="M348.88,304.71c-5.63,0-17.06-17.33-19.6-23.87s-5.43-29.33-5.55-30.29a.49.49,0,0,1,.25-.5c11-6,36.73-10,39.36-10.33.87-1,6.21-7.09,7.53-10a4.29,4.29,0,0,1,2.34-2.58,2.09,2.09,0,0,1,1.68.15.48.48,0,0,1,.17.68l-7.93,13.32a.61.61,0,0,1-.16.16,11.35,11.35,0,0,0,1.44,2.15c2.21,2.84,8.85,11.23,10.61,13.44.84-1.21,2.67-3.52,4.29-3.22.86.16,1.45,1,1.75,2.5,1.1,5.47-4.56,13.45-5.19,14.31-.33,1-3.42,10.12-5.91,14.37C371.28,289.57,354.2,304.71,348.88,304.71Zm-24.12-53.94c.37,2.91,3.09,23.65,5.45,29.71,2.76,7.11,14,23.23,18.67,23.23,4.93,0,21.66-14.87,24.22-19.25s5.81-14.16,5.84-14.26a.64.64,0,0,1,.08-.14c.06-.08,6.11-8.35,5.06-13.59-.2-1-.54-1.63-1-1.71-.95-.17-2.7,1.86-3.65,3.36a.5.5,0,0,1-.39.23.46.46,0,0,1-.42-.19c-.09-.11-8.5-10.71-11-14-1.77-2.27-1.92-3-1.6-3.42a.59.59,0,0,1,.4-.26L373.86,228a1.35,1.35,0,0,0-.37.06,3.46,3.46,0,0,0-1.71,2c-1.49,3.35-7.55,10.15-7.81,10.44a.52.52,0,0,1-.3.16C363.39,240.72,336.15,244.72,324.76,250.77Z" style="fill:#263238"></path><path d="M333.76,272.38c-3.31,0-6.58-.57-8.05-2-2.68-2.67-3.43-12.41-3.46-12.82a.49.49,0,0,1,.43-.53c16.14-2.21,23.16.64,23.45.76a.51.51,0,0,1,.3.5c-.08,1.16-.87,11.4-4.73,12.94A24.06,24.06,0,0,1,333.76,272.38Zm-10.47-14.47c.18,2,1,9.62,3.13,11.73,2.33,2.33,11.25,2.08,14.91.62,2.67-1.06,3.81-8.48,4.08-11.7C343.86,258,336.89,256.12,323.29,257.91Z" style="fill:#263238"></path><path d="M364.73,272.38a24.06,24.06,0,0,1-7.94-1.19c-3.86-1.54-4.65-11.78-4.73-12.94a.51.51,0,0,1,.3-.5c.29-.12,7.31-3,23.45-.76a.49.49,0,0,1,.43.53c0,.41-.78,10.15-3.46,12.82C371.31,271.81,368,272.38,364.73,272.38Zm-11.65-13.82c.27,3.22,1.41,10.64,4.08,11.7,3.66,1.47,12.58,1.71,14.91-.62,2.11-2.11,2.95-9.75,3.13-11.73C361.57,256.12,354.62,258,353.08,258.56Z" style="fill:#263238"></path><path d="M352.56,258.72a.52.52,0,0,1-.33-.12c-2.28-2-6,0-6.06.06a.5.5,0,0,1-.48-.88c.18-.1,4.39-2.35,7.19.06a.5.5,0,0,1-.32.88Z" style="fill:#263238"></path><path d="M352.56,261.66h-6.63a.5.5,0,0,1,0-1h6.63a.5.5,0,0,1,0,1Z" style="fill:#263238"></path><path d="M338.21,264.1c0,1.22-.58,2.21-1.29,2.21s-1.29-1-1.29-2.21.58-2.2,1.29-2.2S338.21,262.88,338.21,264.1Z" style="fill:#263238"></path><path d="M363.41,264.47c0,1.22-.57,2.21-1.29,2.21s-1.28-1-1.28-2.21.57-2.21,1.28-2.21S363.41,263.25,363.41,264.47Z" style="fill:#263238"></path><path d="M331.21,255.77a.49.49,0,0,1-.46-.32.5.5,0,0,1,.28-.64c.28-.11,6.87-2.63,11.42-.74a.5.5,0,0,1-.39.93c-4.18-1.75-10.6.71-10.67.74A.52.52,0,0,1,331.21,255.77Z" style="fill:#263238"></path><path d="M358.45,254.67a.52.52,0,0,1-.46-.29.5.5,0,0,1,.24-.66c.27-.13,6.53-3,12.2-.37a.5.5,0,1,1-.42.9c-5.24-2.44-11.29.34-11.35.37A.54.54,0,0,1,358.45,254.67Z" style="fill:#263238"></path><path d="M350.15,279.93c-2.19,0-4.68-.9-5.37-1.93-.8-1.21.31-5.14.68-6.32a.5.5,0,0,1,.62-.33.51.51,0,0,1,.33.63c-.67,2.19-1.17,4.9-.8,5.46.55.83,4,2,6.05,1.28a.49.49,0,0,1,.63.31.51.51,0,0,1-.31.64A5.87,5.87,0,0,1,350.15,279.93Z" style="fill:#263238"></path><path d="M348.37,286.73a9.52,9.52,0,0,1-6.09-2,.51.51,0,0,1,0-.71.5.5,0,0,1,.71,0c.21.19,5.36,4.77,14.09-1.52a.5.5,0,1,1,.58.82C354,285.92,350.83,286.73,348.37,286.73Z" style="fill:#263238"></path><path d="M375.74,258a.5.5,0,0,1-.48-.37.49.49,0,0,1,.35-.61l4.05-1.11a.5.5,0,0,1,.26,1l-4.05,1.1Z" style="fill:#263238"></path><path d="M404.07,320s15.83,6.25,18.4,7,5.52,5.15,5.52,6.62-4.78,62.92-4.78,74-1.47,16.19-2.58,18-25.39,6.26-30.17,7-25.39,4-25.39,4l-3.68-13.61s23.18-10.3,25.39-12.14,8.09-8.47,8.09-8.47l-3.31-4.41,1.11-3.32,2.2-4,1.55-33.43" style="fill:#9C75EB"></path><path d="M365.07,437.18a.49.49,0,0,1-.49-.37l-3.67-13.61a.5.5,0,0,1,.27-.59c8-3.55,23.57-10.65,25.28-12.07,1.88-1.57,6.59-6.79,7.77-8.11l-3.07-4.08a.51.51,0,0,1-.07-.46l1.1-3.31,2.19-4,1.54-33.31a.51.51,0,0,1,.53-.48.49.49,0,0,1,.47.52l-1.55,33.43a.43.43,0,0,1-.06.22l-2.21,4-1,3,3.15,4.2a.48.48,0,0,1,0,.63c-.24.28-5.94,6.68-8.15,8.52s-22,10.63-25.12,12l3.45,12.77c3-.49,20.61-3.31,24.95-4,7.19-1.1,28.69-5.26,29.83-6.76.58-1,2.5-5.15,2.5-17.77,0-8.1,2.56-43.19,3.94-62.05.49-6.7.84-11.53.84-11.91,0-1.28-2.86-5.49-5.16-6.14-2.57-.74-17.79-6.75-18.44-7a.5.5,0,0,1-.28-.65.51.51,0,0,1,.65-.28c.16.06,15.83,6.26,18.35,7,2.87.82,5.88,5.44,5.88,7.1,0,.39-.27,4.17-.84,12-1.38,18.84-3.94,53.92-3.94,62,0,12.53-1.85,17-2.65,18.29-1.42,2.37-30.24,7.19-30.53,7.23-4.72.73-25.18,4-25.38,4.05Z" style="fill:#263238"></path><path d="M365.07,436.68s20.6-3.31,25.39-4c2.09-.33,7.91-1.35,13.89-2.56-1.34-26.93-17.57-19.15-17.57-19.15-2.21,1.84-25.39,12.14-25.39,12.14Z" style="fill:#fff"></path><path d="M365.07,437.18a.49.49,0,0,1-.49-.37l-3.67-13.61a.5.5,0,0,1,.27-.59c8-3.55,23.57-10.65,25.28-12.07l.1-.07c.23-.1,5.61-2.62,10.58.34,4.62,2.75,7.21,9.23,7.71,19.25a.5.5,0,0,1-.4.51c-5.95,1.2-11.82,2.24-13.92,2.56-4.72.73-25.18,4-25.38,4.05ZM362,423.35l3.45,12.77c3-.49,20.61-3.31,24.95-4,2-.31,7.66-1.3,13.45-2.46-.53-9.41-2.95-15.47-7.2-18s-9.05-.56-9.59-.33C384.67,413.21,365.11,422,362,423.35Z" style="fill:#263238"></path><path d="M415.48,414.37A.51.51,0,0,1,415,414c-4.94-13.77-16.61-11.91-17.11-11.82a.5.5,0,0,1-.17-1c.13,0,13-2.11,18.22,12.47a.5.5,0,0,1-.3.64A.51.51,0,0,1,415.48,414.37Z" style="fill:#263238"></path><path d="M370.49,424.33s1.85,5.14,1.24,8.43-5.15,6.17-8.44,4.53S370.49,424.33,370.49,424.33Z" style="fill:#fff"></path><path d="M365.38,438.26a5,5,0,0,1-2.31-.53,1.58,1.58,0,0,1-.88-1.18c-.59-3.25,7.06-11.62,7.93-12.56a.49.49,0,0,1,.47-.15.48.48,0,0,1,.37.32c.08.21,1.89,5.31,1.26,8.69a7.09,7.09,0,0,1-3.86,4.68A6.74,6.74,0,0,1,365.38,438.26Zm4.9-13c-3.25,3.6-7.47,9.09-7.11,11.07a.6.6,0,0,0,.34.47,5,5,0,0,0,4.4-.21,6,6,0,0,0,3.32-4C371.68,430.3,370.76,426.84,370.28,425.3Z" style="fill:#263238"></path><path d="M347,424.12a44.93,44.93,0,0,1-7.61,3.29c-3.09.83-5.15,1-3.91,2.68s5.55,1.85,7.4,1.23a41,41,0,0,0,4.32-1.85l2.88-6.38Z" style="fill:#fff"></path><path d="M340.43,432.14c-2,0-4.36-.49-5.31-1.75a1.6,1.6,0,0,1-.4-1.52c.31-.86,1.53-1.17,3.38-1.63l1.2-.31a44.6,44.6,0,0,0,7.5-3.25l.08,0,3.09-1a.5.5,0,0,1,.61.68l-2.88,6.38a.53.53,0,0,1-.23.24,42.55,42.55,0,0,1-4.39,1.88A9.18,9.18,0,0,1,340.43,432.14Zm6.81-7.56a44.74,44.74,0,0,1-7.68,3.32l-1.22.31c-1.19.3-2.55.64-2.68,1,0,.08,0,.28.26.59,1,1.38,5,1.67,6.85,1.06a38.66,38.66,0,0,0,4.09-1.75l2.34-5.17Z" style="fill:#263238"></path><path d="M367.82,422.27s-13.42-6.19-15.63-5.09-6.62,8.46-7,11-5.52,12.14-4.42,13.62,3.31-.74,4.05-1.84,2.94-6.26,2.94-6.26,11.58,5.46,14.9,4.72,7-11.41,7.72-13.25S367.82,422.27,367.82,422.27Z" style="fill:#fff"></path><path d="M341.71,442.83a1.61,1.61,0,0,1-1.33-.7c-.79-1,.38-4,2.38-8.76a31.69,31.69,0,0,0,1.94-5.22c.39-2.74,4.95-10.26,7.26-11.42s13.71,4,16,5.07c.33.12,2.23.81,2.82,2.09a1.89,1.89,0,0,1,0,1.51c-.08.19-.19.47-.32.83-2.11,5.59-4.9,12.08-7.77,12.72-3.08.68-12.5-3.51-14.74-4.54-.57,1.31-2.16,4.92-2.78,5.86-.44.65-2,2.51-3.48,2.56ZM353,417.53a1.31,1.31,0,0,0-.58.1c-2,1-6.37,8.22-6.72,10.66a30.66,30.66,0,0,1-2,5.47c-1.05,2.49-3,7.11-2.5,7.78a.71.71,0,0,0,.56.29c.83,0,2.11-1.27,2.67-2.11a66.29,66.29,0,0,0,2.9-6.18.55.55,0,0,1,.29-.27.49.49,0,0,1,.39,0c3.17,1.5,12,5.25,14.57,4.68,1.79-.4,4.16-4.47,7-12.09.14-.37.25-.66.33-.85a.84.84,0,0,0,0-.71,4.36,4.36,0,0,0-2.25-1.58l-.05,0C363,420.58,355.42,417.53,353,417.53Z" style="fill:#263238"></path><path d="M347.77,434.24a.43.43,0,0,1-.19,0,.51.51,0,0,1-.27-.65c.58-1.4,5.74-13.68,7.63-15.36a.5.5,0,0,1,.7,0,.5.5,0,0,1,0,.71c-1.45,1.29-5.81,11.26-7.36,15A.51.51,0,0,1,347.77,434.24Z" style="fill:#263238"></path><path d="M353.42,436.35a.58.58,0,0,1-.19,0,.5.5,0,0,1-.28-.65c.21-.53,5.19-13.05,6.86-15.14a.5.5,0,0,1,.79.62c-1.27,1.58-5,10.43-6.72,14.89A.49.49,0,0,1,353.42,436.35Z" style="fill:#263238"></path><path d="M358.76,438.2a.43.43,0,0,1-.19,0,.5.5,0,0,1-.26-.66c.61-1.42,6-13.9,7.1-15a.5.5,0,0,1,.7,0,.5.5,0,0,1,0,.71c-.7.7-4.59,9.36-6.89,14.66A.49.49,0,0,1,358.76,438.2Z" style="fill:#263238"></path><path d="M307.32,329.52a.51.51,0,0,1-.48-.36,3.33,3.33,0,0,1,.15-2.24.5.5,0,1,1,.92.38,2.3,2.3,0,0,0-.11,1.59.48.48,0,0,1-.34.61A.34.34,0,0,1,307.32,329.52Z" style="fill:#263238"></path><path d="M308,326.61a.47.47,0,0,1-.27-.08.5.5,0,0,1-.15-.69l.36-.54a7.39,7.39,0,0,0,1.13-2.13,13.27,13.27,0,0,0,0-5.15.51.51,0,0,1,.4-.59.5.5,0,0,1,.58.39,14.26,14.26,0,0,1,0,5.63,8.21,8.21,0,0,1-1.26,2.41l-.35.52A.48.48,0,0,1,308,326.61Z" style="fill:#263238"></path><path d="M303.52,328.57a.51.51,0,0,1-.47-.31c-.87-2.18,0-3.26.88-4.3a5.4,5.4,0,0,0,1.32-2.34,15.2,15.2,0,0,0-.31-6.11.5.5,0,0,1,1-.26,15.93,15.93,0,0,1,.33,6.58,6.28,6.28,0,0,1-1.53,2.77c-.82,1-1.37,1.66-.72,3.28a.5.5,0,0,1-.28.65A.39.39,0,0,1,303.52,328.57Z" style="fill:#263238"></path></g><g id="freepik--Device--inject-44"><polygon points="336.6 463.5 365.71 444.91 254.6 444.91 229.48 463.5 336.6 463.5" style="fill:#fff"></polygon><path d="M336.6,464H229.48a.5.5,0,0,1-.29-.9l25.12-18.59a.45.45,0,0,1,.29-.1H365.71a.5.5,0,0,1,.48.36.5.5,0,0,1-.21.56l-29.11,18.6A.54.54,0,0,1,336.6,464ZM231,463H336.45L364,445.41H254.77Z" style="fill:#263238"></path><polygon points="333.74 458.56 348.64 448.63 257.71 448.01 240.64 459.19 333.74 458.56" style="fill:#fff"></polygon><path d="M240.64,459.69a.5.5,0,0,1-.48-.36.5.5,0,0,1,.21-.56l17.06-11.18a1,1,0,0,1,.28-.08l90.93.62a.52.52,0,0,1,.48.36.51.51,0,0,1-.2.56L334,459a.54.54,0,0,1-.27.09l-93.11.62Zm17.22-11.18-15.53,10.16,91.26-.6L347,449.12Zm75.88,10.06h0Z" style="fill:#263238"></path><polygon points="336.6 463.5 229.48 463.5 219.91 389.67 327.02 389.67 336.6 463.5" style="fill:#fff"></polygon><path d="M336.6,464H229.48a.49.49,0,0,1-.49-.43l-9.57-73.84a.46.46,0,0,1,.12-.39.48.48,0,0,1,.37-.17H327a.5.5,0,0,1,.5.43l9.57,73.84a.46.46,0,0,1-.12.39A.48.48,0,0,1,336.6,464Zm-106.68-1H336l-9.45-72.83H220.48Z" style="fill:#263238"></path><path d="M328.63,402c-32.61-1.9-39.89,19.86-67.17,41.14-13.72,10.7-24.55,15.38-32.38,17.26l.4,3.08H336.6Z" style="fill:#fff"></path><path d="M336.6,464H229.48a.49.49,0,0,1-.49-.43l-.4-3.09a.5.5,0,0,1,.38-.55c9.76-2.34,20.58-8.12,32.18-17.16a212.22,212.22,0,0,0,20-18.3c13.55-13.58,24.25-24.3,47.46-23a.51.51,0,0,1,.47.44l8,61.48a.46.46,0,0,1-.12.39A.48.48,0,0,1,336.6,464Zm-106.68-1H336l-7.85-60.5c-22.45-1.19-32.47,8.84-46.28,22.67a210.75,210.75,0,0,1-20.14,18.39c-11.53,9-22.34,14.79-32.12,17.24Z" style="fill:#263238"></path></g></svg>