<svg xmlns="http://www.w3.org/2000/svg" viewBox="0 0 500 500"><g id="freepik--Character--inject-8"><path d="M175.38,299.4s-.31.15-2.93,4.31-3.86,5.25-3.7,7.1,0,3.7.77,4a28.33,28.33,0,0,0,8.78,1.08c4-.15,5.25-.46,6-1.23a8.09,8.09,0,0,0,2.31-4.78c.31-2.47.62-10.17.62-10.17Z" style="fill:#969696;stroke:#263238;stroke-miterlimit:10"></path><path d="M216.07,299.55s7.87,5.71,10.18,6.17,6.47,1.85,6.78,3.54.62,3.86-.31,4.63S225.63,315,221.47,315a16.84,16.84,0,0,1-6.94-1.39l-2.15-.77-.31,1.54s-1.24,0-2.62-.15-5.4-.93-5.4-.93-.62-7.71.93-12.18S216.07,299.55,216.07,299.55Z" style="fill:#969696;stroke:#263238;stroke-miterlimit:10"></path><path d="M174,192.43l.52,57.45.69,47.06L174,299.19l-.5,2.67s8.11,1.31,10,1.31a19.86,19.86,0,0,1,3.7.39s1.31-8.87,1.83-11.64.87-6.75,1.91-13.49,7.95-57.79,7.95-57.79l2.77-2.43.35,24.4s-1.39,28-.17,36,1.9,18.86,1.9,18.86a6.8,6.8,0,0,0,0,2.77,28.63,28.63,0,0,1,.69,3.63,66.42,66.42,0,0,0,7.44-1.21c2.6-.69,6.58-1.56,6.58-1.56s1.55-2.94,1.38-3.46a28,28,0,0,1-1.38-5.19c0-1.21,2.59-46.54,2.59-46.54s1.73-28.21,2.25-38.07S224.55,189,224.55,189l-15.4-2.76Z" style="fill:#263238;stroke:#263238;stroke-miterlimit:10"></path><path d="M235.35,133.6s4.93-2.87,6.37-11.81-6.52-8.94-8.69-7S232.6,127.29,235.35,133.6Z" style="fill:#263238;stroke:#263238;stroke-miterlimit:10"></path><path d="M216.3,110.8a38.4,38.4,0,0,1,7.51,1,52,52,0,0,0,5.7,1.25l5.14-.56s-.55,11.54-.14,14.32.84,6.81.84,6.81l-9-2.36s-.69,1.11-3.75-6.54S216.3,110.8,216.3,110.8Z" style="fill:#969696;stroke:#263238;stroke-miterlimit:10"></path><path d="M234.65,112.47s1.52-36.83,1.52-37.33-.87-5.5-.5-6.5,1.75-4.88,2.13-6.51,3.38.88,2.88,2.5a40,40,0,0,0-.88,5.51l2.5,1.5A32.21,32.21,0,0,1,247.56,69c1.75-.5.12-6.38,2-6s2,9.38,2,11-9.63,8.38-9.63,8.38,5.37,30.91,5.65,34.66.42,4.73-.28,5.84-12.79,3.89-12.79,3.89Z" style="fill:#fff;stroke:#263238;stroke-miterlimit:10"></path><path d="M240.21,42.86c0-1.35,1.87-2.45,4.18-2.45s4.17,1.1,4.17,2.45-1.87,2.45-4.17,2.45S240.21,44.22,240.21,42.86Z" style="fill:#fff;stroke:#263238;stroke-miterlimit:10"></path><path d="M237.34,58.83a7.05,7.05,0,1,0,13.25-3.35,15.06,15.06,0,0,1-2-7.17v-.63h-8.41v.63a13.52,13.52,0,0,1-1.85,6.92A7,7,0,0,0,237.34,58.83Z" style="fill:#fff;stroke:#263238;stroke-miterlimit:10"></path><rect x="240.21" y="45.46" width="8.36" height="2.22" transform="translate(488.77 93.15) rotate(180)" style="fill:#fff;stroke:#263238;stroke-miterlimit:10"></rect><rect x="240.21" y="43.09" width="8.36" height="2.22" transform="translate(488.77 88.41) rotate(180)" style="fill:#fff;stroke:#263238;stroke-miterlimit:10"></rect><path d="M247.06,67.26s-1.26-5.5.37-5.38,3.25,9.89,3.25,11.26-2.75,2.5-2.75,2.5Z" style="fill:#fff;stroke:#263238;stroke-miterlimit:10"></path><path d="M239.67,81.78s-1.75-2.38,0-4.51,6.39-2.88,6.39-2.88-2.51-8.88-.38-8.5,3.38,9.25,3.13,10.13a3.43,3.43,0,0,1-1,1.5" style="fill:#fff;stroke:#263238;stroke-miterlimit:10"></path><path d="M229.51,113s-1.8,1.27-2.28,6.11" style="fill:none;stroke:#263238;stroke-miterlimit:10"></path><path d="M184.89,104A4.43,4.43,0,0,0,187,105.8a7.8,7.8,0,0,0,3.34.55s4.59.14,6.81-3.33-1.81-12.24-.83-17.24S200,78.27,198.93,77s-4.17-2.36-11,5.15S179.33,98.29,184.89,104Z" style="fill:#263238;stroke:#263238;stroke-miterlimit:10"></path><path d="M185.72,112.61s-15.85,7.37-16.54,8.76,3.33,72.84,3.33,72.84.16,2.74,10.72,5.8,20.15-.1,21.67-.24,3.34-4.58,3.34-4.58l1.11,4s1.67,1.25,8.62-1.39,10-5.42,10-5.42l-.69-59.09s-3.62-14.59-5.43-16.82-1.25-4.31-5.56-5.7-13.9-1.8-18.76-1.8S185.72,112.61,185.72,112.61Z" style="fill:#9B64FD;stroke:#263238;stroke-miterlimit:10"></path><path d="M170.1,148.68c.1,2,.2,4.06.31,6.12a83.38,83.38,0,0,0,9.17.49c11.42,0,28.31-2.14,47.83-11.44l-.08-6.65q-2.46,1.23-4.86,2.31c-.41-13.72-3.7-23.25-6.33-28.75a39.93,39.93,0,0,0-7.53-1.25c1.81,2.82,7.8,13.58,7.9,32.48a108.58,108.58,0,0,1-23.59,6.22c-3.93-19.52-8.51-29.14-11.39-33.61-1.66.8-3.59,1.75-5.44,2.68,2.17,3.19,6.8,11.81,10.84,31.61A84.88,84.88,0,0,1,170.1,148.68Z" style="fill:#fff;stroke:#263238;stroke-miterlimit:10"></path><path d="M227.79,176.06l-.08-6.87c-25.51,15.17-46.9,11.31-56.11,8.37.12,2.29.24,4.42.34,6.35a67.49,67.49,0,0,0,17.88,2.37C200.36,186.28,213.45,183.92,227.79,176.06Z" style="fill:#fff;stroke:#263238;stroke-miterlimit:10"></path><path d="M205.74,141.66s4.59,24.89,3.2,50.05" style="fill:none;stroke:#263238;stroke-miterlimit:10"></path><path d="M194.76,121.09a30.84,30.84,0,0,0,3.89,7.09c2.92,4.17,6.67,10.15,6.67,10.15s4.31-10,4.73-14.32a32.3,32.3,0,0,0-.14-7.65l-8.76-5Z" style="fill:#969696;stroke:#263238;stroke-miterlimit:10"></path><path d="M190.31,106.35l-6,7,7.51,12.23,11-6.53,12.09,4.3s-3.33-11.12-6.25-13.34a34.31,34.31,0,0,0-6.26-3.75C201.85,105.94,199.76,103.44,190.31,106.35Z" style="fill:#969696;stroke:#263238;stroke-miterlimit:10"></path><path d="M208.24,101.49l-1.39,11-.65,3.24-2,10s-6.54-8.34-9.6-11.26a25.82,25.82,0,0,1-4.44-5.42,44.86,44.86,0,0,0,.69-7.37,30.56,30.56,0,0,0-.28-5.15l-.41-2.36a57.64,57.64,0,0,0,6.64,3.78l.86.39A65.75,65.75,0,0,0,208.24,101.49Z" style="fill:#fff;stroke:#263238;stroke-miterlimit:10"></path><path d="M208.24,101.49l-1.39,11-.65,3.24c-4.51-4.12-14.37-18.11-14.37-18.11l5,.3.86.39A65.75,65.75,0,0,0,208.24,101.49Z" style="fill:#263238;stroke:#263238;stroke-miterlimit:10"></path><path d="M210.6,80.64s2.78,6.11,2.78,8.48-.69,8.06-.55,9.73-2,3.61-3.76,4.31-3.33,1.25-8.2,0-9-5.56-9-5.56-3.9-1-5.15-3.06-1.25-4.31,1.25-4.45,2.78,1.81,3.2,1.11-.69-3.75,1-5.42a9.35,9.35,0,0,0,2.37-4.17c.42-1.11,6.11-2.92,9.73-3.89S210.6,80.64,210.6,80.64Z" style="fill:#fff;stroke:#263238;stroke-miterlimit:10"></path><path d="M207.55,81.19s-.56,1,0,1.53,3.47,3.06,3.19,3.89S208,89,206.85,89" style="fill:none;stroke:#263238;stroke-miterlimit:10"></path><path d="M209.77,91.06a5.92,5.92,0,0,1-7-.41" style="fill:none;stroke:#263238;stroke-miterlimit:10"></path><path d="M202.37,83.18a1,1,0,1,1-1.88.48,1,1,0,1,1,1.88-.48Z" style="fill:#263238"></path><path d="M211.1,82.52a1,1,0,1,1-1.25-1A1.13,1.13,0,0,1,211.1,82.52Z" style="fill:#263238"></path><path d="M198.93,82.17a2.93,2.93,0,0,1,3.19-2" style="fill:none;stroke:#263238;stroke-miterlimit:10"></path><path d="M193.51,82.17A57.73,57.73,0,0,0,184.33,93c-3.48,5.7.56,11,.56,11s-4.17-1.81-5-5.28-3.61-4-3.06-11.12,4.31-13.63,9.73-16.27,13.07-1.8,14.46-1.11a13.62,13.62,0,0,1,3.62,2.22,52.36,52.36,0,0,0,4.58,3.06Z" style="fill:#fff;stroke:#263238;stroke-miterlimit:10"></path><path d="M193.51,82.17s4.44-5.56,6.25-6.68,8-3.35,11.68-1.53c2.22,1.12,2.79,2,1.81,3.76-1.11,2-1.95,3.47-1.95,3.47s-1.39-1.11-6.67-1.39S193.51,82.17,193.51,82.17Z" style="fill:#fff;stroke:#263238;stroke-miterlimit:10"></path><path d="M157.36,156l-1.67,16,5.15,32.53s-.56,6.95,0,7.92,1.53,2.92,1.53,2.92v7.37c0,.42.41,1.25,1,1.11,0,0,1.25.84,2.08.56l.84-.28s1.67.28,2.36-.28a8.47,8.47,0,0,0,1.25-1.25,6.35,6.35,0,0,0,.7-1.94A38.93,38.93,0,0,0,171,214a44.76,44.76,0,0,0-1.94-8.89l-.42-1-.69-33.36,2.92-10.15Z" style="fill:#fff;stroke:#263238;stroke-miterlimit:10"></path><path d="M163.34,223.82s.94-4.6,1.27-7" style="fill:none;stroke:#263238;stroke-miterlimit:10"></path><path d="M166.26,224.1s1.53-6.34,1.44-7.89" style="fill:none;stroke:#263238;stroke-miterlimit:10"></path><path d="M168.62,223.82s.88-4.27,1.2-7.78" style="fill:none;stroke:#263238;stroke-miterlimit:10"></path><path d="M173.9,121.79s-1.25-3.06-4.72-.42-16.13,33.5-16.13,33.5,2.92,4.17,10,6.12,11.12,1.39,11.12,1.39,1.67-21.41,1.39-29.47S173.9,121.79,173.9,121.79Z" style="fill:#969696;stroke:#263238;stroke-miterlimit:10"></path></g></svg>
