<svg xmlns="http://www.w3.org/2000/svg" viewBox="0 0 500 500"><g id="freepik--Plant--inject-8"><path d="M411.33,304.31h0a.08.08,0,0,0,0-.1s-.09,0-.1,0a101.4,101.4,0,0,0-5.37,16.83,156,156,0,0,0-3,17.44l-.42,4.41c-.07.74-.15,1.47-.2,2.21l-.12,2.21c-.06,1.48-.15,3-.2,4.43l0,4.43.05,2.22c0,.73.09,1.47.14,2.21.11,1.47.2,2.94.34,4.41.28,2.94.72,5.86,1.17,8.77a.08.08,0,0,0,.08.07.09.09,0,0,0,.08-.08h0c0-1.47-.07-2.94-.11-4.41s-.17-2.93-.15-4.4,0-2.94,0-4.4l0-2.2,0-2.19,0-4.39.11-4.39.05-2.2c0-.73.08-1.46.12-2.19l.27-4.39a156.89,156.89,0,0,1,2.49-17.39A101,101,0,0,1,411.33,304.31Z" style="fill:#263238"></path><path d="M412,327.27a.08.08,0,1,0-.15,0,107.15,107.15,0,0,0-3.13,11.15,105.15,105.15,0,0,0-1.84,11.46c-.39,3.84-.82,7.69-.87,11.55a95.54,95.54,0,0,0,.41,11.59.08.08,0,0,0,.07.07.08.08,0,0,0,.08-.07c.45-3.85.72-7.69,1-11.52s.31-7.68.56-11.52a102.05,102.05,0,0,1,1.37-11.41A100.4,100.4,0,0,1,412,327.27Z" style="fill:#263238"></path><path d="M424.69,335.34a.09.09,0,0,0-.11,0,38.84,38.84,0,0,0-8.51,7.42,33.36,33.36,0,0,0-3.33,4.63l-.68,1.29-.54,1.34a12.84,12.84,0,0,0-.47,1.36c-.13.45-.29.91-.41,1.37A54.37,54.37,0,0,0,408.88,364a64.79,64.79,0,0,0,.42,11.31.09.09,0,0,0,.07.06.08.08,0,0,0,.09-.07l1-11.19a98.83,98.83,0,0,1,1.41-11c.1-.45.23-.89.35-1.34a12.44,12.44,0,0,1,.39-1.32l.45-1.29.59-1.22a32.74,32.74,0,0,1,3.05-4.63,38.53,38.53,0,0,1,8-7.78h0A.08.08,0,0,0,424.69,335.34Z" style="fill:#263238"></path><path d="M418.53,349.72a12.33,12.33,0,0,0-3.87,4.66,27.11,27.11,0,0,0-2.17,5.7,12.69,12.69,0,0,0-.38,1.47l-.35,1.49a25.59,25.59,0,0,0-.38,3c0,1,0,2,0,3a25.74,25.74,0,0,0,.4,3,.06.06,0,0,0,.06.06.08.08,0,0,0,.09-.06,26.55,26.55,0,0,0,.54-3c.15-1,.31-2,.43-3s.27-1.95.34-2.93.21-2,.43-2.92a26.94,26.94,0,0,1,1.65-5.65,12.47,12.47,0,0,1,3.25-4.85h0a.08.08,0,0,0,0-.1A.07.07,0,0,0,418.53,349.72Z" style="fill:#263238"></path><path d="M400.67,360.94c-.41-5-1.23-9.89-2-14.81s-1.63-9.82-2.53-14.71-1.91-9.77-3-14.63a.08.08,0,0,0-.15,0c.85,4.9,1.62,9.81,2.34,14.73s1.45,9.83,2.07,14.76,1.08,9.87,1.7,14.79L401,375.89a.07.07,0,0,0,.07.07.07.07,0,0,0,.08-.07c.06-1.25.06-2.5.09-3.75s-.05-2.49-.07-3.74C401.07,365.91,400.86,363.42,400.67,360.94Z" style="fill:#263238"></path><path d="M397.69,360.87c-.26-2-.62-3.93-1-5.88l-.7-2.9c-.22-1-.44-1.94-.72-2.89a82.88,82.88,0,0,0-3.8-11.3l-.6-1.37-.66-1.34c-.42-.9-.93-1.76-1.41-2.63a22.15,22.15,0,0,0-3.59-4.75.08.08,0,1,0-.11.11h0a21.5,21.5,0,0,1,3.28,4.86c.43.88.89,1.75,1.26,2.67l.58,1.35.52,1.38a80.79,80.79,0,0,1,3.31,11.3c.45,1.91.75,3.86,1.12,5.79l.47,2.91c.17,1,.37,1.93.51,2.91.31,1.94.67,3.88,1,5.82s.65,3.9,1.07,5.84a.07.07,0,0,0,.07.07.09.09,0,0,0,.08-.08c0-2,0-4-.14-5.95S397.9,362.84,397.69,360.87Z" style="fill:#263238"></path><path d="M393.58,361.12c-.92-2.61-2-5.16-3.14-7.66a70.76,70.76,0,0,0-4-7.26.09.09,0,0,0-.11,0,.07.07,0,0,0,0,.1,69.56,69.56,0,0,1,3.37,7.48c1,2.55,1.92,5.13,2.68,7.75s1.34,5.28,2,7.91,1.33,5.28,2.14,7.94a.07.07,0,0,0,.07.06.09.09,0,0,0,.08-.08,39.61,39.61,0,0,0-.77-8.27A51.15,51.15,0,0,0,393.58,361.12Z" style="fill:#263238"></path><path d="M393.41,369.8a17.54,17.54,0,0,0-2.19-4.58,18.69,18.69,0,0,0-3.18-4,14.39,14.39,0,0,0-2-1.53,8.62,8.62,0,0,0-2.29-1,.07.07,0,0,0-.09.05.07.07,0,0,0,0,.1h0a11.6,11.6,0,0,1,3.81,3,18.77,18.77,0,0,1,2.65,4c.76,1.43,1.15,3,1.8,4.48.29.75.58,1.51.91,2.26a20,20,0,0,0,1,2.3h0s0,.05.07.05a.08.08,0,0,0,.08-.08,17.92,17.92,0,0,0-.09-2.54C393.79,371.46,393.61,370.63,393.41,369.8Z" style="fill:#263238"></path><path d="M393.72,323.9a14.15,14.15,0,0,1-10-10.65c-1.88-8.77,4.17-5-1.26-18.79s-4.17-16.91-2.29-20.88,2.92-2.71,4.59,2.51,7.73,13.36,10,28.6S393.72,323.9,393.72,323.9Z" style="fill:#9B64FD"></path><path d="M409.8,309.08s-5.43-1.88-5.64-12.11,4-8.14,4.59-20.88,1.46-21.71,3.76-21.92,8.35,6.26,10.44,20.46-2.71,23.59-6.89,27.77S409.8,309.08,409.8,309.08Z" style="fill:#9B64FD"></path><path d="M390.8,336.22s-1.26-7.52-3.76-11.07-7.94-6.68-11.49-13.57-7.51-10.23-7.3-.41,4.59,14.82,10,18.16S390.8,336.22,390.8,336.22Z" style="fill:#9B64FD"></path><path d="M388.5,349.16a75.13,75.13,0,0,0-12.32-16.7c-7.31-7.1-13.15-10.65-11.06-7.1s4.59,3.34,8.14,9.61,2.5,10.85,7.51,14.4S388.5,349.16,388.5,349.16Z" style="fill:#9B64FD"></path><path d="M387.87,361.48c-.21-.62-.41-5.22-7.51-9s-13.78-2.3-12.95-.42,5.22,5,9.61,6.89A44,44,0,0,0,387.87,361.48Z" style="fill:#9B64FD"></path><path d="M409.38,336.64s-3.13-4-1.46-12.32,5.42-6.26,9.6-10.65,3.34-5,7.52-9.6,7.93-7.1,9.6-5.22-.83,7.72-3.34,11.06-6.47,5-8.35,9.19-1,10.86-5.85,14S409.38,336.64,409.38,336.64Z" style="fill:#9B64FD"></path><path d="M419.82,338.93s7.51-8.56,12.94-14.82,7.52-11.07,7.73-6.89,1.88,7.52-2.51,12.95S419.82,338.93,419.82,338.93Z" style="fill:#9B64FD"></path><path d="M415.85,352.71s-.21-3.34,11.69-11.06,16.91-9.19,15.66-6.06-6.47,6.27-12.11,11.9S415.85,352.71,415.85,352.71Z" style="fill:#9B64FD"></path><path d="M394.22,323s-2.8-15-5.72-25.62-4.8-17.13-4.8-17.13" style="fill:none;stroke:#263238;stroke-linecap:round;stroke-linejoin:round"></path><path d="M409.31,309.24s5.08-16.24,6.75-26.05-.21-17.12-1-21.51" style="fill:none;stroke:#263238;stroke-linecap:round;stroke-linejoin:round"></path><path d="M390.14,335.91a77.93,77.93,0,0,0-7.7-11c-4.59-5.43-8.14-8.36-10.23-13.58" style="fill:none;stroke:#263238;stroke-linecap:round;stroke-linejoin:round"></path><path d="M409.38,336.64s1.67-10,5.64-15.24,11.9-13.37,15-18.59" style="fill:none;stroke:#263238;stroke-linecap:round;stroke-linejoin:round"></path><path d="M387.38,361.26s-7-4.58-12-7.08" style="fill:none;stroke:#263238;stroke-linecap:round;stroke-linejoin:round"></path><path d="M427.61,403.34c-.47-12.67-14.55-21.12-14.55-21.12H391.49s-14.08,8.45-14.55,21.12,16,59.12,16,59.12h18.76S428.08,416,427.61,403.34Z" style="fill:#263238;stroke:#263238;stroke-linecap:round;stroke-linejoin:round"></path><polygon points="415.84 369.77 388.31 369.77 391.49 382.22 412.67 382.22 415.84 369.77" style="fill:#263238;stroke:#263238;stroke-linecap:round;stroke-linejoin:round"></polygon></g></svg>
