<svg xmlns="http://www.w3.org/2000/svg" viewBox="0 0 500 500"><g id="freepik--Picture--inject-8"><g style="opacity:0.30000000000000004"><rect x="322.61" y="93.41" width="145.9" height="192.79" style="fill:none;stroke:#000;stroke-miterlimit:10"></rect><rect x="328.79" y="101.57" width="133.54" height="176.46" style="fill:none;stroke:#000;stroke-miterlimit:10"></rect><rect x="332.88" y="106.97" width="125.37" height="165.66" style="fill:none;stroke:#000;stroke-miterlimit:10"></rect><path d="M458.24,136c-12.51,8.62-30.53,14.46-49.57,25.7-28.28,16.71-34.51,53.08-46.94,83.5-9.46,23.11-21.2,27-26.3,27.49a10.59,10.59,0,0,1-2.55,0" style="fill:none;stroke:#000;stroke-miterlimit:10"></path><path d="M364.46,107c-1.06,10.09-.11,20,5.74,25.45,15.28,14.32,27.72,10.14,57.13-13.71A124,124,0,0,1,444.82,107" style="fill:none;stroke:#000;stroke-miterlimit:10"></path><path d="M332.88,153.91c7.63,4.19,14.89,10.9,16.4,21.46,1.69,11.93-6.65,21.17-16.4,27.81" style="fill:none;stroke:#000;stroke-miterlimit:10"></path><path d="M433.17,272.64c-12.75-13.79-28-35.12-23.93-54.92,4.54-21.94,31.57-31.87,49-36.05" style="fill:none;stroke:#000;stroke-miterlimit:10"></path><ellipse cx="365.68" cy="158.67" rx="14.71" ry="15.51" style="fill:none;stroke:#000;stroke-miterlimit:10"></ellipse><ellipse cx="394.24" cy="218.01" rx="6.5" ry="6.86" style="fill:none;stroke:#000;stroke-miterlimit:10"></ellipse><path d="M441.47,207a5.1,5.1,0,1,1-5.09-5.37A5.24,5.24,0,0,1,441.47,207Z" style="fill:none;stroke:#000;stroke-miterlimit:10"></path><ellipse cx="347.3" cy="229.94" rx="3.68" ry="3.88" style="fill:none;stroke:#000;stroke-miterlimit:10"></ellipse><path d="M409.23,117.52a3.4,3.4,0,1,1-3.39-3.58A3.49,3.49,0,0,1,409.23,117.52Z" style="fill:none;stroke:#000;stroke-miterlimit:10"></path><line x1="322.61" y1="93.41" x2="332.88" y2="106.97" style="fill:none;stroke:#000;stroke-miterlimit:10"></line><line x1="468.51" y1="93.41" x2="458.24" y2="106.97" style="fill:none;stroke:#000;stroke-miterlimit:10"></line><line x1="458.24" y1="272.63" x2="468.51" y2="286.2" style="fill:none;stroke:#000;stroke-miterlimit:10"></line><line x1="322.61" y1="286.2" x2="332.88" y2="272.63" style="fill:none;stroke:#000;stroke-miterlimit:10"></line></g></g></svg>
