<svg xmlns="http://www.w3.org/2000/svg" viewBox="0 0 500 500"><g id="freepik--Scaffold--inject-8"><polygon points="237.43 409.94 59.51 232.83 63.35 229.62 241.27 406.74 237.43 409.94" style="fill:#9B64FD;stroke:#263238;stroke-miterlimit:10"></polygon><rect x="239.65" y="206.97" width="5" height="237.44" style="fill:#9B64FD;stroke:#263238;stroke-miterlimit:10"></rect><path d="M247.76,439.16H237.6a2.5,2.5,0,1,1,0-5h10.16a2.5,2.5,0,1,1,0,5Z" style="fill:#9B64FD;stroke:#263238;stroke-miterlimit:10"></path><circle cx="242.22" cy="454.53" r="7.93" transform="translate(-69.68 44.67) rotate(-9.22)" style="fill:#9B64FD;stroke:#263238;stroke-miterlimit:10"></circle><path d="M246.76,454.53a4.54,4.54,0,1,0-4.54,4.53A4.53,4.53,0,0,0,246.76,454.53Z" style="fill:#fff;stroke:#263238;stroke-miterlimit:10"></path><path d="M237.39,445.58l3.49,9.36a1.56,1.56,0,0,0,1.46,1h0a1.54,1.54,0,0,0,1.48-1.11l2.73-9.26Z" style="fill:#fff;stroke:#263238;stroke-miterlimit:10"></path><rect x="235.49" y="442.47" width="13.07" height="3.39" style="fill:#fff;stroke:#263238;stroke-miterlimit:10"></rect><path d="M331,277.94H245.47a2.5,2.5,0,0,1-2.5-2.5h0a2.5,2.5,0,0,1,2.5-2.5H331Z" style="fill:#9B64FD;stroke:#263238;stroke-miterlimit:10"></path><path d="M331,322.36H245.47a2.49,2.49,0,0,1-2.5-2.5h0a2.5,2.5,0,0,1,2.5-2.5H331Z" style="fill:#9B64FD;stroke:#263238;stroke-miterlimit:10"></path><path d="M331,366.79H245.47a2.5,2.5,0,0,1-2.5-2.5h0a2.5,2.5,0,0,1,2.5-2.5H331Z" style="fill:#9B64FD;stroke:#263238;stroke-miterlimit:10"></path><rect x="150.37" y="406.21" width="180.63" height="5" style="fill:#9B64FD;stroke:#263238;stroke-miterlimit:10"></rect><rect x="328.91" y="206.97" width="5" height="237.44" style="fill:#9B64FD;stroke:#263238;stroke-miterlimit:10"></rect><path d="M337.08,439.16H326.91a2.5,2.5,0,0,1,0-5h10.17a2.5,2.5,0,0,1,0,5Z" style="fill:#9B64FD;stroke:#263238;stroke-miterlimit:10"></path><circle cx="332.11" cy="454.53" r="7.93" transform="translate(-68.36 58.91) rotate(-9.19)" style="fill:#9B64FD;stroke:#263238;stroke-miterlimit:10"></circle><path d="M336.65,454.53a4.54,4.54,0,1,0-4.54,4.53A4.53,4.53,0,0,0,336.65,454.53Z" style="fill:#fff;stroke:#263238;stroke-miterlimit:10"></path><path d="M327.28,445.58l3.49,9.36a1.56,1.56,0,0,0,1.46,1h0a1.54,1.54,0,0,0,1.48-1.11l2.73-9.26Z" style="fill:#fff;stroke:#263238;stroke-miterlimit:10"></path><rect x="325.38" y="442.47" width="13.07" height="3.39" style="fill:#fff;stroke:#263238;stroke-miterlimit:10"></rect><rect x="74.39" y="313.43" width="246" height="3.87" style="fill:#9B64FD;stroke:#263238;stroke-miterlimit:10"></rect><rect x="74.39" y="313.43" width="65.85" height="3.87" style="fill:#9B64FD;stroke:#263238;stroke-miterlimit:10"></rect><polygon points="148.67 409.92 144.83 406.71 325.63 229.62 329.47 232.83 148.67 409.92" style="fill:#9B64FD;stroke:#263238;stroke-miterlimit:10"></polygon><path d="M328.5,233.52H150.37v-5H328.5A2.5,2.5,0,0,1,331,231h0A2.5,2.5,0,0,1,328.5,233.52Z" style="fill:#9B64FD;stroke:#263238;stroke-miterlimit:10"></path><rect x="59.02" y="206.97" width="5" height="237.44" style="fill:#9B64FD;stroke:#263238;stroke-miterlimit:10"></rect><path d="M66.88,439.16H56.71a2.5,2.5,0,1,1,0-5H66.88a2.5,2.5,0,0,1,0,5Z" style="fill:#9B64FD;stroke:#263238;stroke-miterlimit:10"></path><circle cx="61.34" cy="454.53" r="7.93" transform="translate(-72.02 15.69) rotate(-9.22)" style="fill:#9B64FD;stroke:#263238;stroke-miterlimit:10"></circle><path d="M65.87,454.53a4.54,4.54,0,1,0-4.53,4.53A4.53,4.53,0,0,0,65.87,454.53Z" style="fill:#fff;stroke:#263238;stroke-miterlimit:10"></path><path d="M56.51,445.58,60,454.94a1.53,1.53,0,0,0,1.45,1h0a1.55,1.55,0,0,0,1.49-1.11l2.72-9.26Z" style="fill:#fff;stroke:#263238;stroke-miterlimit:10"></path><rect x="54.6" y="442.47" width="13.07" height="3.39" style="fill:#fff;stroke:#263238;stroke-miterlimit:10"></rect><path d="M150.37,233.52H64.84a2.5,2.5,0,0,1-2.5-2.5h0a2.5,2.5,0,0,1,2.5-2.5h85.53Z" style="fill:#9B64FD;stroke:#263238;stroke-miterlimit:10"></path><path d="M150.37,277.94H64.84a2.5,2.5,0,0,1-2.5-2.5h0a2.5,2.5,0,0,1,2.5-2.5h85.53Z" style="fill:#9B64FD;stroke:#263238;stroke-miterlimit:10"></path><path d="M150.37,322.36H64.84a2.49,2.49,0,0,1-2.5-2.5h0a2.5,2.5,0,0,1,2.5-2.5h85.53Z" style="fill:#9B64FD;stroke:#263238;stroke-miterlimit:10"></path><path d="M150.37,366.79H64.84a2.5,2.5,0,0,1-2.5-2.5h0a2.5,2.5,0,0,1,2.5-2.5h85.53Z" style="fill:#9B64FD;stroke:#263238;stroke-miterlimit:10"></path><path d="M150.37,411.21H64.84a2.5,2.5,0,0,1-2.5-2.5h0a2.5,2.5,0,0,1,2.5-2.5h85.53Z" style="fill:#9B64FD;stroke:#263238;stroke-miterlimit:10"></path><rect x="148.27" y="206.97" width="5" height="237.44" style="fill:#9B64FD;stroke:#263238;stroke-miterlimit:10"></rect><path d="M156,439.16H145.8a2.5,2.5,0,0,1,0-5H156a2.5,2.5,0,0,1,0,5Z" style="fill:#9B64FD;stroke:#263238;stroke-miterlimit:10"></path><circle cx="150.99" cy="454.53" r="7.93" transform="translate(-70.69 29.97) rotate(-9.19)" style="fill:#9B64FD;stroke:#263238;stroke-miterlimit:10"></circle><path d="M155.53,454.53a4.54,4.54,0,1,0-4.54,4.53A4.53,4.53,0,0,0,155.53,454.53Z" style="fill:#fff;stroke:#263238;stroke-miterlimit:10"></path><path d="M146.17,445.58l3.48,9.36a1.56,1.56,0,0,0,1.46,1h0a1.55,1.55,0,0,0,1.49-1.11l2.72-9.26Z" style="fill:#fff;stroke:#263238;stroke-miterlimit:10"></path><rect x="144.26" y="442.47" width="13.07" height="3.39" style="fill:#fff;stroke:#263238;stroke-miterlimit:10"></rect></g></svg>
